<?xml version="1.0" encoding="UTF-8"?><svg id="Layer_2" xmlns="http://www.w3.org/2000/svg" viewBox="0 0 273 72"><defs><style>.cls-1{fill:#fff;}.cls-2{fill:#8a2617;}</style></defs><g id="Layer_1-2"><path class="cls-2" d="m61.86,10.54C55.34,4.03,46.34,0,36.4,0,31.63,0,27.07.93,22.9,2.62c-3.88,1.57-7.43,3.8-10.5,6.55C5.04,15.76.4,25.34.4,36c0,4.77.93,9.33,2.62,13.5,1.57,3.88,3.8,7.43,6.55,10.5.42-3.79,1.63-7.35,3.47-10.5,4.66-8.07,13.39-13.5,23.36-13.5,0,9.97-5.43,18.7-13.5,23.36-3.15,1.84-6.71,3.05-10.5,3.47,3.07,2.75,6.62,4.98,10.5,6.55,4.17,1.69,8.73,2.62,13.5,2.62,9.94,0,18.94-4.03,25.46-10.54.47-.47.93-.96,1.37-1.46,2.75-3.07,4.98-6.62,6.55-10.5,1.69-4.17,2.62-8.73,2.62-13.5,0-9.94-4.03-18.94-10.54-25.46M9.57,39c-.11-.99-.17-1.99-.17-3,0-9.97,5.43-18.7,13.5-23.36,5.53,3.19,9.82,8.29,11.96,14.4-10.04.42-19.02,4.95-25.29,11.96m53.66,0c-.42,3.79-1.63,7.35-3.47,10.5-4.66,8.07-13.39,13.5-23.36,13.5-1.01,0-2.01-.06-3-.17.5-.44.99-.9,1.46-1.37,6.17-6.18,10.11-14.59,10.5-23.92.03-.51.04-1.02.04-1.54,0-2.78-.32-5.49-.91-8.09-1.54-6.69-4.94-12.67-9.63-17.37-.47-.47-.96-.93-1.46-1.37.99-.11,1.99-.17,3-.17,14.89,0,27,12.11,27,27,0,1.01-.06,2.01-.17,3"/><path class="cls-1" d="m102.85,27.36c0,5.51-3.82,6.84-10.04,6.84h-11.41V9h11.55c5.76,0,9.04,2.05,9.04,6.8,0,3.24-1.51,4.46-3.42,5.22,3.2,1.26,4.28,3.42,4.28,6.33h0Zm-11.27-12.13h-1.04v3.67h1.3c1.58,0,1.98-.86,1.98-1.87,0-1.3-.9-1.8-2.23-1.8h-.01Zm0,12.71c1.87,0,2.34-.9,2.34-2.02,0-1.44-.83-1.91-2.09-1.91h-1.3v3.92h1.05Z"/><path class="cls-1" d="m119.6,34.2l-.97-4.36h-6.3l-.97,4.36h-9.21l7.7-25.2h11.23l7.74,25.2h-9.22Zm-5.87-10.51h3.49l-1.76-7.74s-1.73,7.74-1.73,7.74Z"/><path class="cls-1" d="m140.33,9c7.13,0,10.47,2.99,10.47,8.49,0,6.01-4.17,8.68-10.47,8.68h-2.09v8.03h-8.93V9h11.02Zm-1.15,11.19c1.91,0,2.56-1.15,2.56-2.48,0-1.62-.97-2.3-2.59-2.3h-.9v4.79h.94-.01Z"/><path class="cls-1" d="m166.21,9h9.14v25.2h-9.14v-9.75h-5.22v9.75h-9.14V9h9.14v9.29h5.22v-9.29Z"/><path class="cls-1" d="m176.66,21.6c0-7.92,5.29-13.21,13.21-13.21s13.25,5.29,13.25,13.21-5.29,13.21-13.25,13.21-13.21-5.26-13.21-13.21Zm17.31,0c0-3.38-1.62-5.29-4.1-5.29s-4.07,2.12-4.07,5.29c0,3.42,1.62,5.29,4.07,5.29,2.63,0,4.1-2.09,4.1-5.29Z"/><path class="cls-1" d="m222.05,9h11.88v25.2h-8.75v-15.26l-3.28,15.26h-5.47l-3.31-15.44v15.44h-8.71V9h11.88l2.88,14,2.88-14h0Z"/><path class="cls-1" d="m245.82,26.89h7.63v7.31h-16.77V9h16.41v7.31h-7.27v2.09h6.7v6.16h-6.7v2.34h0Z"/><path class="cls-1" d="m272.6,9v7.31h-4.72v17.89h-9.14v-17.89h-4.72v-7.31h18.58Z"/><path class="cls-1" d="m92.42,37.8c7.13,0,10.47,2.99,10.47,8.5,0,6.01-4.17,8.67-10.47,8.67h-2.09v8.03h-8.93v-25.2h11.02Zm-1.15,11.2c1.91,0,2.56-1.15,2.56-2.48,0-1.62-.97-2.3-2.59-2.3h-.9v4.79h.94-.01Z"/><path class="cls-1" d="m113.31,55.69h7.63v7.31h-16.77v-25.2h16.41v7.31h-7.27v2.09h6.7v6.16h-6.7v2.34h0Z"/><path class="cls-1" d="m136.41,63l-3.13-8.71h-.79v8.71h-9.14v-25.2h10.76c3.42,0,10.8.22,10.8,8.21,0,3.28-1.3,5.15-3.82,6.19l4.64,10.8h-9.32,0Zm-3.02-18.86h-.9v4.21h.94c1.73,0,2.34-.9,2.34-2.2,0-1.55-.9-2.02-2.38-2.02h0Z"/><path class="cls-1" d="m145.71,50.4c0-7.92,5.11-13.21,12.17-13.21,2.38,0,4.64.61,6.55,1.73v8.53c-1.04-1.04-2.38-2.34-4.72-2.34-2.99,0-4.86,2.12-4.86,5.29s1.84,5.29,4.79,5.29c2.34,0,4.14-1.33,4.79-3.1v9.32c-1.87,1.08-4.14,1.69-6.55,1.69-7.05,0-12.17-5.29-12.17-13.21h0Z"/><path class="cls-1" d="m166.94,53.43v-15.62h8.39v15.77c0,1.44.79,2.12,2.02,2.12,1.37,0,2.02-.86,2.02-2.12v-15.77h8.39v15.62c0,6.91-4.18,10.19-10.4,10.19-7.09,0-10.4-4.07-10.4-10.19h-.02Z"/><path class="cls-1" d="m190.19,60.95v-7.81c1.3,1.33,4.25,3.6,7.49,3.6,1.55,0,2.02-.54,2.02-1.12,0-.86-1.15-1.22-2.66-1.69-2.95-.9-7.27-2.3-7.27-8.21,0-6.55,5.58-8.53,10.22-8.53,2.34,0,5.33.5,7.99,2.66v6.91c-2.81-1.98-5.26-2.48-6.98-2.48-.79,0-2.09.11-2.09.97,0,.79,1.19,1.12,2.81,1.48,4.72,1.04,7.16,2.77,7.16,7.34,0,6.3-4.97,9.54-10.98,9.54-1.8,0-5.33-.29-7.7-2.66h-.01Z"/><path class="cls-1" d="m210.76,63v-25.2h9.14v25.2h-9.14Z"/><path class="cls-1" d="m221.44,50.4c0-7.92,5.29-13.21,13.21-13.21s13.25,5.29,13.25,13.21-5.29,13.21-13.25,13.21-13.21-5.25-13.21-13.21Zm17.31,0c0-3.38-1.62-5.29-4.1-5.29s-4.07,2.12-4.07,5.29c0,3.42,1.62,5.29,4.07,5.29,2.63,0,4.1-2.09,4.1-5.29Z"/><path class="cls-1" d="m263.74,37.8h8.85v25.2h-9.32l-5-11.23v11.23h-8.85v-25.2h9.39l4.93,11.09v-11.09Z"/></g></svg>